# xmcd
#
# Track frame offsets: 
#        150
#        15884
#        29958
#        43197
#        59644
#        78119
#        93068
#        112194
#        125210
#        135783
#        149236
#        165026
#
# Disc length: 2380 seconds
#
# Revision: 0
# Processed by: cddbd v1.5.2PL0 Copyright (c) Steve Scherf et al.
# Submitted via: ExactAudioCopy v0.99pb4
#
DISCID=a0094a0c
DTITLE=Ron Williams - Texa Style
DYEAR=2007
DGENRE=Country
TTITLE0=I Would Have Loved You All Night Long
TTITLE1=Anything Goes Till Everything's Gone
TTITLE2=There's One On Every Jukebox In Town
TTITLE3=Anything You Can Spare
TTITLE4=Alone With You
TTITLE5=Somewhere Between (w Leona Williams)
TTITLE6=This Time We're Going To Make It
TTITLE7=Bridge That Just Won't Burn
TTITLE8=Playboy
TTITLE9=The Best Man
TTITLE10=Texas Honky Tonk
TTITLE11=Where Are All The Girls I Used To Cheat With?
EXTD=
EXTT0=
EXTT1=
EXTT2=
EXTT3=
EXTT4=
EXTT5=
EXTT6=
EXTT7=
EXTT8=
EXTT9=
EXTT10=
EXTT11=
PLAYORDER=
